<?xml version="1.0" encoding="UTF-8"?>
<svg id="Layer_2" data-name="Layer 2" xmlns="http://www.w3.org/2000/svg" viewBox="0 0 49.22 6.59">
  <defs>
    <style>
      .cls-1 {
        fill: #231f20;
      }

      .cls-1, .cls-2, .cls-3, .cls-4 {
        stroke-width: 0px;
      }

      .cls-2 {
        fill: #d1d332;
      }

      .cls-3 {
        fill: #a9a9ad;
      }

      .cls-4 {
        fill: #f47823;
      }
    </style>
  </defs>
  <g id="Layer_1-2" data-name="Layer 1">
    <g>
      <path class="cls-2" d="M1.6,6.39l-.02.06H.39c-.26,0-.45-.25-.38-.49L1.61,0l1.38,1.23-.03.12-1.35,5.05Z"/>
      <polygon class="cls-3" points="4.76 2.81 4.76 2.82 4.27 4.48 4.17 4.81 4.08 5.14 3.71 6.39 3.69 6.46 1.84 6.46 3.19 1.41 4.76 2.81"/>
      <path class="cls-4" d="M4.96,2.99l.04-.12h0s0-.01,0-.01l.04-.12h0s.8-2.74.8-2.74l3.81,3.54c.19.18.26.44.2.69l-.61,2.23H3.94l.55-1.86.1-.33.1-.33.28-.94h0Z"/>
      <path class="cls-1" d="M13.44,6.46h-1.3V1.77h1.3l-.13,1.15.09.1c0-.17.03-.34.09-.5.06-.16.15-.31.28-.43.13-.13.29-.23.48-.31.19-.08.41-.12.67-.12.12,0,.24,0,.37,0,.12,0,.25.02.37.04.12.02.24.06.36.1.12.05.23.12.34.21.09.07.16.16.21.26s.09.21.12.31c.04.12.07.24.09.36l.08.09c0-.2.04-.39.13-.56.09-.17.21-.32.36-.44.15-.12.33-.22.53-.28.2-.07.42-.1.64-.1.15,0,.33.02.55.05.21.03.42.1.62.21.2.11.37.26.51.46.14.2.21.47.21.82v3.28h-1.31v-2.67c0-.07,0-.14,0-.2,0-.06,0-.12-.01-.18-.04-.28-.14-.47-.3-.59s-.41-.17-.76-.17c-.24,0-.43.04-.57.13-.14.09-.25.19-.33.3s-.13.23-.15.36c-.03.12-.04.21-.04.28v2.75h-1.31v-2.67c0-.08,0-.15,0-.21,0-.06,0-.12-.01-.18-.02-.14-.06-.26-.1-.35-.05-.1-.11-.17-.19-.23s-.18-.1-.3-.13c-.12-.03-.26-.04-.42-.04-.25,0-.46.04-.61.13-.15.1-.26.21-.34.33-.08.12-.13.25-.15.37-.02.12-.03.21-.03.26v2.72Z"/>
      <path class="cls-1" d="M24.4,1.76c.28.08.53.2.74.35.21.15.39.34.52.57.13.23.2.49.2.79v.91h-3.45v.19c0,.11.03.22.08.33s.13.21.23.29c.1.09.22.16.36.21.14.06.3.08.47.08.24,0,.43-.03.57-.1.14-.06.26-.14.34-.23.08-.09.14-.17.16-.26s.05-.15.05-.2h1.19c-.05.63-.25,1.1-.62,1.41-.36.31-.93.46-1.7.46-.25,0-.51-.04-.79-.11-.28-.07-.54-.19-.78-.36s-.44-.37-.59-.62c-.16-.25-.23-.56-.23-.92v-.84c0-.42.07-.76.22-1.03s.34-.49.57-.64.49-.27.78-.33c.28-.06.56-.1.83-.1.3,0,.59.04.87.12ZM22.4,3.48h2.27s-.02-.11-.05-.2c-.03-.09-.09-.17-.18-.25-.08-.08-.2-.15-.35-.21-.15-.06-.34-.09-.57-.09-.19,0-.36.03-.5.08s-.26.12-.35.2c-.09.08-.16.16-.21.24s-.07.16-.07.23h0Z"/>
      <path class="cls-1" d="M28.86,6.46c-.13,0-.27-.02-.43-.06s-.32-.11-.47-.2c-.15-.1-.29-.23-.4-.41-.12-.17-.2-.4-.25-.67-.01-.07-.02-.14-.03-.22,0-.07,0-.15,0-.23v-1.61h-1.04v-1.28l1.72.1.05-.05c-.15-.04-.29-.12-.42-.23-.13-.11-.22-.27-.27-.49-.01-.06-.02-.12-.03-.18,0-.06,0-.13,0-.2V.21h1.28l-.02.91c0,.13,0,.24.02.33.02.08.04.15.06.2s.05.08.08.1c.03.02.06.03.08.04h1.94v1.28h-2.15v1.09c0,.24.03.44.09.59.06.15.14.26.25.35.11.08.23.14.38.17.14.03.3.04.48.04h.98v1.17h-1.86Z"/>
      <path class="cls-1" d="M34.74,1.83c.28.12.51.28.68.47.17.2.29.42.36.67s.1.51.1.77v2.72h-1.3l.1-.81-.06-.07v-.02c-.02.15-.07.29-.14.41-.07.12-.16.23-.28.32s-.26.16-.43.21-.36.08-.58.08h0c-.21,0-.44-.02-.68-.05-.24-.03-.46-.1-.66-.2-.2-.1-.37-.24-.5-.42-.13-.18-.2-.42-.2-.71,0-.17.02-.34.06-.52.04-.18.13-.34.27-.49.14-.15.35-.27.62-.37s.64-.14,1.09-.14h1.4v-.2c0-.19-.03-.34-.1-.45-.07-.11-.15-.19-.25-.25s-.2-.09-.3-.11c-.1-.01-.19-.02-.26-.02s-.16,0-.27.02-.22.04-.32.1-.19.13-.26.23c-.08.1-.11.25-.11.42h-1.28c0-.23.04-.45.12-.66s.21-.4.39-.56.41-.3.7-.4c.29-.1.63-.15,1.04-.15.43,0,.78.06,1.07.18ZM33.78,5.62c.17-.04.3-.08.4-.13s.18-.11.24-.17c.05-.06.09-.12.12-.18s.04-.11.04-.15,0-.07,0-.09v-.3l-1.4-.03c-.09,0-.18,0-.27.02-.09.01-.17.04-.24.08s-.13.09-.17.15-.07.14-.07.23c0,.08.02.16.05.23.03.07.08.14.15.2.06.06.14.11.23.15.09.04.19.06.31.06.24,0,.45-.02.61-.05Z"/>
      <path class="cls-1" d="M38.13,6.46h-1.28V.21h1.28v6.25Z"/>
      <path class="cls-1" d="M38.91,3.81c0-.37.06-.69.17-.96.11-.27.27-.5.48-.68.21-.18.46-.31.76-.4.3-.09.64-.13,1.02-.13.45,0,.82.04,1.12.13.3.08.54.21.73.37s.32.36.41.6c.09.23.15.51.17.81h-1.3c-.01-.12-.04-.22-.07-.31-.04-.09-.1-.17-.18-.23s-.2-.11-.33-.15-.32-.05-.54-.05c-.2,0-.37.03-.51.08-.14.05-.26.12-.35.21-.09.09-.16.2-.2.32-.04.12-.07.25-.07.39v.61c0,.13.02.26.07.38.04.12.11.23.2.32.09.09.21.16.35.22.14.06.31.08.51.08.22,0,.4-.02.54-.07s.25-.1.33-.18c.08-.07.14-.16.18-.26.04-.1.06-.21.07-.32h1.3c-.02.3-.08.57-.17.82-.09.25-.23.46-.41.63-.19.17-.43.31-.73.4-.3.1-.67.14-1.12.14-.38,0-.72-.04-1.02-.13-.3-.09-.56-.22-.76-.4-.21-.18-.37-.4-.48-.68-.11-.27-.17-.59-.17-.96v-.61Z"/>
      <path class="cls-1" d="M45.65,6.51c-.2-.05-.39-.15-.57-.28-.18-.14-.33-.32-.46-.56-.12-.23-.19-.54-.19-.91V1.77h1.3v2.65c0,.24.03.43.08.58.05.15.13.26.23.34.1.08.22.14.36.17.14.03.3.04.47.04.11,0,.21-.01.3-.04.09-.03.17-.06.24-.1s.13-.09.18-.15.1-.11.13-.17c.09-.13.15-.28.19-.45V1.77h1.3v4.69h-1.3l.1-1.13-.07-.08c-.01.23-.06.43-.14.6-.08.17-.19.31-.34.42-.14.11-.32.19-.54.24-.21.05-.46.08-.75.08-.15,0-.33-.03-.53-.08Z"/>
    </g>
  </g>
</svg>