<?xml version="1.0" encoding="utf-8"?>
<!-- Generator: Adobe Illustrator 28.4.1, SVG Export Plug-In . SVG Version: 6.00 Build 0)  -->
<svg version="1.1" id="Layer_2_00000183954242609871988710000003564405729336874662_"
	 xmlns="http://www.w3.org/2000/svg" xmlns:xlink="http://www.w3.org/1999/xlink" x="0px" y="0px" viewBox="0 0 49.2 6.6"
	 style="enable-background:new 0 0 49.2 6.6;" xml:space="preserve">
<style type="text/css">
	.st0{fill:#FEE000;}
	.st1{fill:#A9A9AD;}
	.st2{fill:#F47823;}
	.st3{fill:#231F20;}
</style>
<g id="Layer_1-2">
	<g>
		<path class="st0" d="M1.6,6.4L1.6,6.4L0.4,6.4C0.1,6.4-0.1,6.2,0,6l1.6-6L3,1.2l0,0.1L1.6,6.4L1.6,6.4z"/>
		<polygon class="st1" points="4.8,2.8 4.8,2.8 4.3,4.5 4.2,4.8 4.1,5.1 3.7,6.4 3.7,6.5 1.8,6.5 3.2,1.4 		"/>
		<path class="st2" d="M5,3l0-0.1l0,0v0l0-0.1l0,0L5.8,0l3.8,3.5C9.8,3.7,9.9,4,9.8,4.2L9.2,6.5H3.9l0.6-1.9l0.1-0.3l0.1-0.3L5,3
			L5,3L5,3z"/>
		<path class="st3" d="M13.4,6.5h-1.3V1.8h1.3l-0.1,1.2L13.4,3c0-0.2,0-0.3,0.1-0.5s0.1-0.3,0.3-0.4c0.1-0.1,0.3-0.2,0.5-0.3
			c0.2-0.1,0.4-0.1,0.7-0.1c0.1,0,0.2,0,0.4,0c0.1,0,0.2,0,0.4,0s0.2,0.1,0.4,0.1c0.1,0,0.2,0.1,0.3,0.2c0.1,0.1,0.2,0.2,0.2,0.3
			s0.1,0.2,0.1,0.3c0,0.1,0.1,0.2,0.1,0.4L16.9,3c0-0.2,0-0.4,0.1-0.6c0.1-0.2,0.2-0.3,0.4-0.4c0.1-0.1,0.3-0.2,0.5-0.3
			c0.2-0.1,0.4-0.1,0.6-0.1c0.1,0,0.3,0,0.5,0c0.2,0,0.4,0.1,0.6,0.2s0.4,0.3,0.5,0.5c0.1,0.2,0.2,0.5,0.2,0.8v3.3h-1.3V3.8
			c0-0.1,0-0.1,0-0.2s0-0.1,0-0.2c0-0.3-0.1-0.5-0.3-0.6S18.4,2.7,18,2.7c-0.2,0-0.4,0-0.6,0.1S17.2,3,17.1,3.1S17,3.3,17,3.4
			c0,0.1,0,0.2,0,0.3v2.8h-1.3V3.8c0-0.1,0-0.2,0-0.2s0-0.1,0-0.2c0-0.1-0.1-0.3-0.1-0.3c-0.1-0.1-0.1-0.2-0.2-0.2S15.1,2.7,15,2.7
			s-0.3,0-0.4,0c-0.2,0-0.5,0-0.6,0.1c-0.1,0.1-0.3,0.2-0.3,0.3s-0.1,0.2-0.1,0.4c0,0.1,0,0.2,0,0.3L13.4,6.5L13.4,6.5z"/>
		<path class="st3" d="M24.4,1.8c0.3,0.1,0.5,0.2,0.7,0.3c0.2,0.2,0.4,0.3,0.5,0.6c0.1,0.2,0.2,0.5,0.2,0.8v0.9h-3.5v0.2
			c0,0.1,0,0.2,0.1,0.3s0.1,0.2,0.2,0.3c0.1,0.1,0.2,0.2,0.4,0.2c0.1,0.1,0.3,0.1,0.5,0.1c0.2,0,0.4,0,0.6-0.1
			c0.1-0.1,0.3-0.1,0.3-0.2s0.1-0.2,0.2-0.3s0-0.2,0-0.2h1.2c0,0.6-0.2,1.1-0.6,1.4c-0.4,0.3-0.9,0.5-1.7,0.5c-0.2,0-0.5,0-0.8-0.1
			S22.2,6.3,22,6.1s-0.4-0.4-0.6-0.6c-0.2-0.2-0.2-0.6-0.2-0.9V3.7c0-0.4,0.1-0.8,0.2-1s0.3-0.5,0.6-0.6s0.5-0.3,0.8-0.3
			c0.3-0.1,0.6-0.1,0.8-0.1C23.8,1.6,24.1,1.6,24.4,1.8L24.4,1.8z M22.4,3.5h2.3c0,0,0-0.1,0-0.2c0-0.1-0.1-0.2-0.2-0.2
			c-0.1-0.1-0.2-0.2-0.4-0.2s-0.3-0.1-0.6-0.1c-0.2,0-0.4,0-0.5,0.1S22.8,2.9,22.7,3c-0.1,0.1-0.2,0.2-0.2,0.2S22.4,3.4,22.4,3.5
			L22.4,3.5L22.4,3.5z"/>
		<path class="st3" d="M28.9,6.5c-0.1,0-0.3,0-0.4-0.1S28.1,6.3,28,6.2c-0.1-0.1-0.3-0.2-0.4-0.4c-0.1-0.2-0.2-0.4-0.2-0.7
			c0-0.1,0-0.1,0-0.2c0-0.1,0-0.2,0-0.2V3.1h-1V1.8L28,1.9l0,0c-0.1,0-0.3-0.1-0.4-0.2s-0.2-0.3-0.3-0.5c0-0.1,0-0.1,0-0.2
			c0-0.1,0-0.1,0-0.2V0.2h1.3l0,0.9c0,0.1,0,0.2,0,0.3c0,0.1,0,0.1,0.1,0.2s0,0.1,0.1,0.1s0.1,0,0.1,0h1.9v1.3h-2.1v1.1
			c0,0.2,0,0.4,0.1,0.6s0.1,0.3,0.2,0.3c0.1,0.1,0.2,0.1,0.4,0.2c0.1,0,0.3,0,0.5,0h1v1.2L28.9,6.5L28.9,6.5z"/>
		<path class="st3" d="M34.7,1.8C35,2,35.2,2.1,35.4,2.3c0.2,0.2,0.3,0.4,0.4,0.7s0.1,0.5,0.1,0.8v2.7h-1.3l0.1-0.8l-0.1-0.1v0
			c0,0.2-0.1,0.3-0.1,0.4s-0.2,0.2-0.3,0.3s-0.3,0.2-0.4,0.2s-0.4,0.1-0.6,0.1l0,0c-0.2,0-0.4,0-0.7-0.1S32,6.4,31.8,6.3
			s-0.4-0.2-0.5-0.4c-0.1-0.2-0.2-0.4-0.2-0.7c0-0.2,0-0.3,0.1-0.5c0-0.2,0.1-0.3,0.3-0.5c0.1-0.2,0.4-0.3,0.6-0.4s0.6-0.1,1.1-0.1
			h1.4V3.5c0-0.2,0-0.3-0.1-0.5c-0.1-0.1-0.2-0.2-0.2-0.2S34,2.7,33.9,2.7c-0.1,0-0.2,0-0.3,0s-0.2,0-0.3,0s-0.2,0-0.3,0.1
			S32.9,2.9,32.8,3c-0.1,0.1-0.1,0.2-0.1,0.4h-1.3c0-0.2,0-0.5,0.1-0.7s0.2-0.4,0.4-0.6s0.4-0.3,0.7-0.4s0.6-0.1,1-0.1
			C34.1,1.6,34.5,1.7,34.7,1.8L34.7,1.8z M33.8,5.6c0.2,0,0.3-0.1,0.4-0.1s0.2-0.1,0.2-0.2c0-0.1,0.1-0.1,0.1-0.2s0-0.1,0-0.2
			s0-0.1,0-0.1V4.6l-1.4,0c-0.1,0-0.2,0-0.3,0c-0.1,0-0.2,0-0.2,0.1s-0.1,0.1-0.2,0.2S32.4,5,32.4,5c0,0.1,0,0.2,0,0.2
			s0.1,0.1,0.2,0.2c0.1,0.1,0.1,0.1,0.2,0.2s0.2,0.1,0.3,0.1C33.4,5.7,33.6,5.7,33.8,5.6L33.8,5.6z"/>
		<path class="st3" d="M38.1,6.5h-1.3V0.2h1.3V6.5z"/>
		<path class="st3" d="M38.9,3.8c0-0.4,0.1-0.7,0.2-1c0.1-0.3,0.3-0.5,0.5-0.7s0.5-0.3,0.8-0.4s0.6-0.1,1-0.1c0.5,0,0.8,0,1.1,0.1
			C42.8,1.8,43,2,43.2,2.1s0.3,0.4,0.4,0.6c0.1,0.2,0.2,0.5,0.2,0.8h-1.3c0-0.1,0-0.2-0.1-0.3c0-0.1-0.1-0.2-0.2-0.2
			S42,2.9,41.9,2.9s-0.3,0-0.5,0c-0.2,0-0.4,0-0.5,0.1S40.6,3,40.5,3.1c-0.1,0.1-0.2,0.2-0.2,0.3s-0.1,0.2-0.1,0.4v0.6
			c0,0.1,0,0.3,0.1,0.4c0,0.1,0.1,0.2,0.2,0.3s0.2,0.2,0.3,0.2s0.3,0.1,0.5,0.1c0.2,0,0.4,0,0.5-0.1s0.2-0.1,0.3-0.2
			c0.1-0.1,0.1-0.2,0.2-0.3s0.1-0.2,0.1-0.3h1.3c0,0.3-0.1,0.6-0.2,0.8c-0.1,0.2-0.2,0.5-0.4,0.6c-0.2,0.2-0.4,0.3-0.7,0.4
			c-0.3,0.1-0.7,0.1-1.1,0.1c-0.4,0-0.7,0-1-0.1S39.8,6.2,39.6,6c-0.2-0.2-0.4-0.4-0.5-0.7c-0.1-0.3-0.2-0.6-0.2-1V3.8L38.9,3.8z"/>
		<path class="st3" d="M45.7,6.5c-0.2-0.1-0.4-0.2-0.6-0.3c-0.2-0.1-0.3-0.3-0.5-0.6c-0.1-0.2-0.2-0.5-0.2-0.9v-3h1.3v2.7
			c0,0.2,0,0.4,0.1,0.6c0,0.2,0.1,0.3,0.2,0.3s0.2,0.1,0.4,0.2s0.3,0,0.5,0c0.1,0,0.2,0,0.3,0c0.1,0,0.2-0.1,0.2-0.1
			s0.1-0.1,0.2-0.2s0.1-0.1,0.1-0.2c0.1-0.1,0.2-0.3,0.2-0.4V1.8h1.3v4.7h-1.3L48,5.3l-0.1-0.1c0,0.2-0.1,0.4-0.1,0.6
			c-0.1,0.2-0.2,0.3-0.3,0.4c-0.1,0.1-0.3,0.2-0.5,0.2c-0.2,0.1-0.5,0.1-0.8,0.1C46,6.6,45.8,6.6,45.7,6.5L45.7,6.5z"/>
	</g>
</g>
</svg>
